<svg width="126" height="77" viewBox="0 0 126 77" fill="none" xmlns="http://www.w3.org/2000/svg"><path d="M34.921 2.834H2.36v30.234H34.92V2.834zM79.28 2.834H46.72v30.234h32.562V2.834zM123.64 2.362H91.079v30.233h32.561V2.362zM123.169 44.405H2.832v30.233h120.337V44.405z" fill="#000"/><path d="M2.265 42.42H.614v34.344h124.914V42.42H2.266zm119.96 31.037H3.917v-27.73h118.308v27.73z" fill="url(#a)"/><path d="M123.876.472h-34.92V34.815h36.572V.472h-1.652zm-1.651 31.037H92.258V3.779h29.967v27.73z" fill="url(#b)"/><path d="M79.517.472H44.596V34.815H81.168V.472h-1.651zM77.865 31.51H47.9V3.779h29.966v27.73z" fill="url(#c)"/><path d="M35.63.472H.707V34.815H37.28V.472h-1.652zM33.976 31.51H4.011V3.779h29.966v27.73z" fill="url(#d)"/><path d="M101.791 15.4h12.458l.897-1.559-.897-1.559h-12.458l-.897 1.56.897 1.558zm0 7.086h12.458l.897-1.559-.897-1.559h-12.458l-.897 1.559.897 1.559zM18.31 14.077l-4.672 2.693v1.795l1.557.898 7.787-4.488V13.18l-7.787-4.488-1.557.898v1.748l4.672 2.74zm3.115 4.819l1.557.897v1.796l-7.787 4.487-1.557-.897v-1.795l7.787-4.488zM18.121 54.75a5.14 5.14 0 0 0-1.557.236c-.472.142-.85.426-1.18.709-.33.33-.566.661-.755 1.087-.188.377-.236.85-.236 1.322 0 .236 0 .473.047.662.048.189.095.425.19.614.094.189.188.33.33.52l.424.425c.33.236.614.425.897.566.142.095.283.142.472.19.189.046.33.141.519.188.378.142.708.236.991.33.236.095.425.19.566.284a.815.815 0 0 1 .283.284.89.89 0 0 1 .095.378c0 .283-.095.567-.33.708-.095.095-.236.142-.425.19-.142.047-.378.047-.567.047-.377 0-.849-.095-1.368-.284a9.48 9.48 0 0 1-1.699-.85c-.047.047-.047.189-.094.378v.803c0 .33 0 .614.047.803 0 .189.047.378.094.425.425.283.944.472 1.463.614.52.142 1.085.189 1.699.189 1.085 0 2.03-.283 2.737-.85.378-.284.614-.614.802-1.04.19-.425.284-.897.284-1.417 0-.236 0-.52-.048-.708a2.34 2.34 0 0 0-.189-.614c-.094-.19-.188-.378-.33-.52l-.425-.425c-.141-.142-.33-.236-.471-.33a1.914 1.914 0 0 0-.425-.237c-.142-.047-.283-.142-.472-.189-.189-.047-.378-.142-.566-.189-.378-.094-.661-.236-.897-.33a3.137 3.137 0 0 1-.566-.284.803.803 0 0 1-.283-.284.944.944 0 0 1-.095-.425c0-.141.047-.283.095-.425.047-.142.141-.236.235-.33.095-.095.236-.142.378-.19.142-.047.283-.047.472-.047.33 0 .755.095 1.227.284.472.189 1.038.472 1.652.85.094-.142.094-.52.094-1.134 0-.33 0-.567-.047-.803 0-.189-.047-.378-.095-.472a6.126 6.126 0 0 0-1.415-.614c-.472-.142-.991-.19-1.463-.19l-.095.095zm11.987 0c-.802 0-1.557.142-2.218.378-.66.284-1.274.661-1.746 1.181a5.054 5.054 0 0 0-1.133 1.748 6.287 6.287 0 0 0-.377 2.126c0 .756.141 1.464.377 2.126.236.66.661 1.228 1.133 1.795.519.52 1.085.944 1.746 1.18.66.284 1.416.378 2.218.378s1.557-.141 2.218-.377c.66-.284 1.274-.662 1.746-1.181.52-.52.897-1.134 1.18-1.748.236-.662.377-1.37.377-2.126 0-.756-.141-1.464-.377-2.126-.236-.661-.66-1.228-1.18-1.748-.52-.52-1.085-.944-1.746-1.18-.66-.284-1.369-.379-2.218-.426zm0 2.173c.802 0 1.51.284 2.076.898.284.283.472.661.614 1.04.141.424.236.85.236 1.369 0 .52-.095.945-.236 1.37-.142.425-.378.756-.614 1.086-.566.614-1.274.898-2.076.898s-1.51-.284-2.076-.898c-.284-.283-.472-.66-.614-1.086a3.955 3.955 0 0 1-.236-1.37c0-.52.095-.945.236-1.37.142-.425.378-.756.614-1.04.566-.613 1.274-.897 2.076-.897zm11.326 6.378v-8.315a7.692 7.692 0 0 0-2.549 0v10.44h6.89c.047-.378.095-.708.095-1.086a7.08 7.08 0 0 0-.095-1.04h-4.341zm13.544-1.843c0 .33-.048.614-.142.85-.094.237-.189.473-.377.662a1.29 1.29 0 0 1-.567.425 2.032 2.032 0 0 1-.802.142c-.283 0-.566-.047-.802-.142a1.289 1.289 0 0 1-.567-.425 3.013 3.013 0 0 1-.377-.661 2.29 2.29 0 0 1-.142-.85v-6.473c-.424-.094-.896-.094-1.321-.094-.425 0-.85.047-1.321.094v6.047c0 1.559.377 2.693 1.132 3.496.755.756 1.84 1.133 3.35 1.133 1.464 0 2.596-.377 3.351-1.133.755-.756 1.133-1.937 1.133-3.496v-6.047c-.425-.094-.897-.094-1.322-.094-.424 0-.849.047-1.32.094l.094 6.472zm5.663-6.472a7.76 7.76 0 0 0-.095 1.087c0 .33.047.709.095 1.086h2.831v8.315c.85.141 1.699.141 2.548 0v-8.315h2.832c.047-.33.094-.708.094-1.086 0-.33-.047-.709-.094-1.087H60.64zm13.874 0a7.692 7.692 0 0 0-2.549 0v10.44c.85.142 1.7.142 2.549 0v-10.44zm8.777-.236c-.802 0-1.557.142-2.218.378-.66.284-1.274.661-1.746 1.181-.519.52-.897 1.134-1.18 1.748a6.287 6.287 0 0 0-.377 2.126c0 .756.141 1.464.377 2.126.236.66.661 1.228 1.18 1.795.52.52 1.085.944 1.746 1.18.66.284 1.416.378 2.218.378s1.558-.141 2.218-.377c.66-.284 1.274-.662 1.746-1.181.52-.52.897-1.134 1.133-1.748.236-.662.377-1.37.377-2.126 0-.756-.141-1.464-.377-2.126-.236-.661-.66-1.228-1.133-1.748-.519-.52-1.085-.944-1.746-1.18-.66-.284-1.416-.379-2.218-.426zm0 2.173c.802 0 1.51.284 2.077.898.283.283.472.661.613 1.04.142.424.236.85.236 1.369 0 .52-.094.945-.236 1.37-.141.425-.377.756-.613 1.086-.567.614-1.275.898-2.077.898s-1.51-.284-2.076-.898c-.283-.283-.472-.66-.66-1.086a3.953 3.953 0 0 1-.237-1.37c0-.52.094-.945.236-1.37a2.62 2.62 0 0 1 .66-1.04c.567-.613 1.228-.897 2.077-.897zm18.122-1.937a7.694 7.694 0 0 0-2.549 0v6.142l-4.86-6.142a7.038 7.038 0 0 0-.992-.094c-.33 0-.66.047-.99.094v10.44c.849.142 1.698.142 2.548 0v-6.14l4.86 6.14c.33.048.661.095.992.095.33 0 .66-.047.991-.095v-10.44zm6.937-.236c-.567 0-1.133.095-1.558.236-.472.142-.849.426-1.179.709-.331.33-.614.661-.756 1.087-.188.377-.235.85-.235 1.322 0 .236 0 .473.047.662.047.189.094.425.188.614.095.189.189.33.331.52l.425.425c.33.236.613.425.896.566.142.095.283.142.472.19.142.046.33.141.519.188.378.142.708.236.991.33.236.095.425.19.566.284.142.095.236.142.284.284a.894.894 0 0 1 .094.378c0 .283-.094.567-.33.708-.095.095-.236.142-.425.19-.142.047-.378.047-.566.047-.378 0-.85-.095-1.369-.284a9.5 9.5 0 0 1-1.699-.85c-.047.047-.047.189-.094.378v.803c0 .33 0 .614.047.803 0 .189.047.378.094.425.425.283.944.472 1.463.614.519.142 1.086.189 1.699.189 1.133 0 2.029-.283 2.737-.85.378-.284.614-.614.803-1.04.188-.425.283-.897.283-1.417 0-.236-.047-.52-.095-.708a2.347 2.347 0 0 0-.188-.614c-.095-.19-.189-.378-.331-.52l-.424-.425c-.142-.142-.331-.236-.472-.33a1.938 1.938 0 0 0-.425-.237c-.142-.047-.283-.142-.472-.189-.189-.047-.378-.142-.566-.189-.378-.094-.661-.236-.897-.33a3.11 3.11 0 0 1-.566-.284.797.797 0 0 1-.283-.284.933.933 0 0 1-.095-.425c0-.141.047-.283.095-.425.047-.142.141-.236.236-.33.094-.095.236-.142.377-.19.142-.047.283-.047.472-.047.33 0 .755.095 1.227.284.472.189 1.038.472 1.652.85.094-.142.094-.52.094-1.134 0-.33 0-.567-.047-.803 0-.189-.047-.378-.095-.472a6.103 6.103 0 0 0-1.415-.614c-.472-.142-.991-.19-1.463-.19l-.047.095zM70.503 11.196l-7.456 4.346-7.456-4.346-1.604.945v10.534l1.604.945 7.456-4.346 7.456 4.346 1.605-.945V12.14l-1.605-.945zM57.196 18.99v-3.165l2.737 1.606-2.737 1.56zm11.75 0l-2.69-1.559 2.69-1.559v3.118z" fill="#fff"/><defs><linearGradient id="a" x1="-3.829" y1="-7.361" x2="130.065" y2="126.394" gradientUnits="userSpaceOnUse"><stop stop-color="#EB3BFF"/><stop offset="1" stop-color="#00DCF8"/></linearGradient><linearGradient id="b" x1="80.522" y1="-9.111" x2="140.138" y2="50.444" gradientUnits="userSpaceOnUse"><stop stop-color="#EB3BFF"/><stop offset="1" stop-color="#00DCF8"/></linearGradient><linearGradient id="c" x1="36.162" y1="-9.111" x2="95.779" y2="50.444" gradientUnits="userSpaceOnUse"><stop stop-color="#EB3BFF"/><stop offset="1" stop-color="#00DCF8"/></linearGradient><linearGradient id="d" x1="-7.726" y1="-9.111" x2="51.891" y2="50.444" gradientUnits="userSpaceOnUse"><stop stop-color="#EB3BFF"/><stop offset="1" stop-color="#00DCF8"/></linearGradient></defs></svg>