<svg xmlns="http://www.w3.org/2000/svg" viewBox="0 0 62 14"><g transform="translate(-32.463-118.67)" fill="#fff"><path d="m32.463 118.67h8.656v1.617h-3.4v9.08h-1.872v-9.08h-3.385v-1.617"/><path d="m45.783 124.81c-.02-.27-.08-.529-.18-.779-.09-.25-.22-.464-.389-.644-.16-.19-.359-.339-.599-.449-.23-.12-.489-.18-.779-.18-.3 0-.574.055-.824.165-.24.1-.449.245-.629.434-.17.18-.31.394-.419.644-.1.25-.155.519-.165.809h3.984m-3.984 1.123c0 .3.04.589.12.869.09.28.22.524.389.734s.384.379.644.509c.26.12.569.18.929.18.499 0 .899-.105 1.198-.314.309-.22.539-.544.689-.973h1.617c-.09.419-.245.794-.464 1.123-.22.329-.484.609-.794.839-.31.22-.659.384-1.048.494-.379.12-.779.18-1.198.18-.609 0-1.148-.1-1.617-.3-.469-.2-.869-.479-1.198-.839-.319-.359-.564-.789-.734-1.288-.16-.499-.24-1.048-.24-1.647 0-.549.085-1.068.255-1.558.18-.499.429-.934.749-1.303.329-.379.724-.679 1.183-.899.459-.22.978-.329 1.557-.329.609 0 1.153.13 1.632.389.489.25.894.584 1.213 1 .319.419.549.904.689 1.453.15.539.19 1.098.12 1.677h-5.691"/><path d="m48.848 118.67h1.707v10.693h-1.707v-10.693"/><path d="m57.717 124.81c-.02-.27-.08-.529-.18-.779-.09-.25-.22-.464-.389-.644-.16-.19-.359-.339-.599-.449-.23-.12-.489-.18-.779-.18-.3 0-.574.055-.824.165-.24.1-.449.245-.629.434-.17.18-.31.394-.419.644-.1.25-.155.519-.165.809h3.984m-3.984 1.123c0 .3.04.589.12.869.09.28.22.524.389.734s.384.379.644.509c.26.12.569.18.929.18.499 0 .899-.105 1.198-.314.309-.22.539-.544.689-.973h1.617c-.09.419-.245.794-.464 1.123-.22.329-.484.609-.794.839-.31.22-.659.384-1.048.494-.379.12-.779.18-1.198.18-.609 0-1.148-.1-1.617-.3-.469-.2-.869-.479-1.198-.839-.319-.359-.564-.789-.734-1.288-.16-.499-.24-1.048-.24-1.647 0-.549.085-1.068.255-1.558.18-.499.429-.934.749-1.303.329-.379.724-.679 1.183-.899.459-.22.978-.329 1.557-.329.609 0 1.153.13 1.632.389.489.25.894.584 1.213 1 .319.419.549.904.689 1.453.15.539.19 1.098.12 1.677h-5.691"/><path d="m67.896 128.96c0 1.168-.329 2.037-.988 2.606-.649.579-1.588.869-2.816.869-.389 0-.784-.04-1.183-.12-.389-.08-.749-.215-1.078-.404-.319-.19-.589-.439-.809-.749-.22-.31-.349-.689-.389-1.138h1.707c.05.24.135.434.255.584.12.15.26.265.419.344.17.09.354.145.554.165.2.03.409.045.629.045.689 0 1.193-.17 1.513-.509.319-.339.479-.829.479-1.468v-1.183h-.03c-.24.429-.569.764-.988 1-.409.24-.854.359-1.333.359-.619 0-1.148-.105-1.587-.315-.429-.22-.789-.514-1.078-.884-.28-.379-.484-.814-.614-1.303-.13-.489-.195-1.013-.195-1.573 0-.519.08-1.013.24-1.483.16-.469.389-.879.689-1.228.3-.359.664-.644 1.093-.854.439-.21.934-.314 1.483-.314.489 0 .939.105 1.348.314.409.2.724.519.944.958h.03v-1.063h1.707v7.338m-3.789-.944c.379 0 .699-.075.958-.225.27-.16.484-.364.644-.614.17-.26.29-.549.359-.869.08-.329.12-.659.12-.988 0-.329-.04-.649-.12-.958-.08-.309-.205-.584-.374-.824-.16-.24-.374-.429-.644-.569-.26-.14-.574-.21-.944-.21-.379 0-.699.08-.958.24-.26.16-.469.369-.629.629-.16.25-.275.539-.344.869-.07.32-.105.639-.105.958 0 .32.04.634.12.944.08.3.2.569.359.809.17.24.379.434.629.584.26.15.569.225.929.225"/><path d="m69.63 121.62h1.603v1.498h.03c.05-.21.145-.414.285-.614.15-.2.324-.379.524-.539.21-.17.439-.305.689-.404.25-.1.504-.15.764-.15.2 0 .334.005.404.015.08.01.16.02.24.03v1.647c-.12-.02-.245-.035-.374-.045-.12-.02-.24-.03-.359-.03-.29 0-.564.06-.824.18-.25.11-.469.28-.659.509-.19.22-.339.494-.449.824-.11.329-.165.709-.165 1.138v3.684h-1.707v-7.743"/><path d="m81.38 127.65c0 .21.025.359.075.449.06.09.17.135.329.135h.18c.07 0 .15-.01.24-.03v1.183c-.06.02-.14.04-.24.06-.09.03-.185.055-.285.075-.1.02-.2.035-.3.045-.1.01-.185.015-.255.015-.349 0-.639-.07-.869-.21-.23-.14-.379-.384-.449-.734-.339.329-.759.569-1.258.719-.489.15-.963.225-1.423.225-.349 0-.684-.05-1-.15-.32-.09-.604-.225-.854-.404-.24-.19-.434-.424-.584-.704-.14-.29-.21-.624-.21-1 0-.479.085-.869.255-1.168.18-.3.409-.534.689-.704.29-.17.609-.29.958-.359.359-.08.719-.14 1.078-.18.309-.06.604-.1.884-.12.28-.03.524-.075.734-.135.22-.06.389-.15.509-.27.13-.13.195-.319.195-.569 0-.22-.055-.399-.165-.539-.1-.14-.23-.245-.389-.314-.15-.08-.32-.13-.509-.15-.19-.03-.369-.045-.539-.045-.479 0-.874.1-1.183.3-.31.2-.484.509-.524.929h-1.707c.03-.499.15-.914.359-1.243.21-.329.474-.594.794-.794.329-.2.699-.339 1.108-.419.409-.08.829-.12 1.258-.12.379 0 .754.04 1.123.12.369.08.699.21.988.389.3.18.539.414.719.704.18.28.27.624.27 1.033v3.984m-1.707-2.157c-.26.17-.579.275-.958.314-.379.03-.759.08-1.138.15-.18.03-.354.075-.524.135-.17.05-.32.125-.449.225-.13.09-.235.215-.314.374-.07.15-.105.334-.105.554 0 .19.055.349.165.479.11.13.24.235.389.315.16.07.329.12.509.15.19.03.359.045.509.045.19 0 .394-.025.614-.075s.424-.135.614-.255c.2-.12.364-.27.494-.449.13-.19.195-.419.195-.689v-1.273"/><path d="m83.23 121.62h1.617v1.078h.045c.13-.19.27-.364.419-.524.15-.16.314-.295.494-.404.19-.11.404-.195.644-.255.24-.07.514-.105.824-.105.469 0 .904.105 1.303.314.409.21.699.534.869.973.29-.399.624-.714 1-.944.379-.23.854-.344 1.423-.344.819 0 1.453.2 1.902.599.459.399.689 1.068.689 2.01v5.346h-1.707v-4.523c0-.309-.01-.589-.03-.839-.02-.26-.08-.479-.18-.659-.09-.19-.23-.334-.419-.434-.19-.1-.449-.15-.779-.15-.579 0-.998.18-1.258.539-.26.359-.389.869-.389 1.528v4.538h-1.707v-4.972c0-.539-.1-.944-.3-1.213-.19-.28-.544-.419-1.063-.419-.22 0-.434.045-.644.135-.2.09-.379.22-.539.389-.15.17-.275.379-.374.629-.09.25-.135.534-.135.854v4.598h-1.707v-7.743"/></g></svg>