<svg xmlns="http://www.w3.org/2000/svg" viewBox="0 0 448 512">
  <path fill="#b9cfe3" d="M383.9 308.3l23.9-62.6c4-10.5-3.7-21.7-15-21.7h-43.2c1.5-7.8 2.4-15.8 2.4-24 0-7.2-.9-14.2-2.2-21.1 40.5-9.8 66.2-24.2 66.2-40.2 0-16.5-27-31.2-69.3-41-8.9-33.6-27.4-67.9-41.3-85.4-6.3-8-15.7-12.3-25.3-12.3-9.5 0-12.3 2.4-41.8 17.2-12.8 6.4-24.3 2.1-28.6 0C179.9 2.3 177.3 0 167.9 0c-9.6 0-18.9 4.3-25.2 12.2-13.9 17.5-32.4 51.8-41.3 85.4C59 107.4 32 122.2 32 138.7c0 16.1 25.7 30.5 66.2 40.2-1.3 6.9-2.2 13.9-2.2 21.1 0 8.2.9 16.2 2.4 24H56.3c-11.5 0-19.2 11.7-14.7 22.3l25.8 60.2C27.3 329.8 0 372.7 0 422.4v44.8C0 491.9 20.1 512 44.8 512h358.4c24.7 0 44.8-20.1 44.8-44.8v-44.8c0-48.4-25.8-90.4-64.1-114.1zM128 200c0-2.7.3-5.3.6-7.9 1.3.8 5.1 3.3 5.8 5.4 3.9 11.9 7 24.6 16.5 33.4 8 7.4 47 25.1 64-25 2.8-8.4 15.4-8.4 18.3 0 16 47.4 53.9 34.4 64 25 9.5-8.8 12.7-21.5 16.5-33.4.7-2.1 4.4-4.6 5.8-5.4.3 2.6.6 5.2.6 7.9 0 52.9-43.1 96-96 96S128 252.9 128 200zm-.7-75.5c.7-2.7 12.3-57 40.5-92.5 28.7 14.4 37.7 20.5 56.2 20.5 18.6 0 27.7-6.3 56.2-20.5l.1.1c28.1 35.4 39.7 89.6 40.4 92.4 21.4 4.9 35.8 7.9 51 14.2-24.3 9.9-75.4 21.3-147.7 21.3s-123.4-11.4-147.7-21.3c15.2-6.3 29.9-9.3 51-14.2zM44.8 480c-7.1 0-12.8-5.7-12.8-12.8v-44.8c0-36.5 19.2-69.5 51.4-88.2L108 320l-27.4-64h28.9c4.7 9.6 64.3 108.5 64.3 108.5L142.9 480H44.8zm131.2 0l32-120-21.9-38.4c12.1 3.8 24.6 6.4 37.9 6.4s25.9-2.6 37.9-6.4L240 360l32 120h-96zm240-12.8c0 7.1-5.7 12.8-12.8 12.8h-98.1l-30.8-115.5s59.6-98.9 64.3-108.5h31l-25 65.6 22.5 13.9c30.6 18.9 48.9 51.4 48.9 86.9v44.8z"/>
</svg>
