<svg version="1" xmlns="http://www.w3.org/2000/svg" width="933.333" height="933.333" viewBox="0 0 700.000000 700.000000"><path d="M323.5.6c-31.6 3.1-54.8 7.7-80.6 16-73.6 23.6-137.4 71-181.1 134.4-27.2 39.4-46 83.6-55.2 130-5.2 26.2-6 35.4-6 69 0 34.3.8 43.2 6.4 71 22.4 110.1 97.8 203.4 201.5 249.4 22.8 10.2 46.1 17.6 70.5 22.6 27.8 5.6 36.7 6.4 71 6.4s43.2-.8 71-6.4c130.6-26.6 236-127.5 268.5-257 3.5-13.8 6.4-29.2 8.7-46 1.7-12.8 1.7-67.2 0-80-8.3-60.9-26.9-110.5-59-157.5C590.7 81.4 517.8 30.8 434.1 10c-28.4-7.1-44.9-9-78.6-9.5-15.4-.1-29.8-.1-32 .1zm188.9 211.8c8.7 3.6 11.7 12.1 9.2 25.8-1.2 6.8-49.4 234.9-56.5 267.8-2.5 11.5-5.6 17.7-10.2 20.8-2.9 2.1-4.3 2.3-9.4 1.9-3.4-.2-7.6-1.2-9.5-2.2-1.9-1-23.1-16.3-47-33.9-23.9-17.7-55.3-40.9-69.8-51.6-14.4-10.6-26.1-19.7-26-20.1.2-.5 36.3-33.3 80.3-72.9 44-39.6 80.8-73.1 81.9-74.4 2.6-3.4 1.5-5.6-2.8-5.6-1.9 0-4.5.4-5.8.9-1.4.5-47.8 29.5-103.2 64.5L242.9 397l-43.7-13.7c-24-7.5-45.7-14.5-48.1-15.6-5.1-2.4-8.4-7.1-7.6-10.7.9-3.6 4.9-7.4 11.4-10.9 4.3-2.2 328.1-127.7 345.6-133.9 4.2-1.5 8-1.4 11.9.2z"/></svg>